<?xml version="1.0" encoding="UTF-8"?>
<svg width="260" height="260" xmlns="http://www.w3.org/2000/svg">
  <rect width="100%" height="100%" fill="white"/>
  <g stroke="#cccccc" stroke-width="1">
    <line x1="40" y1="40" x2="220" y2="40"/>
    <line x1="40" y1="40" x2="40" y2="220"/>
    <line x1="40" y1="100" x2="220" y2="100"/>
    <line x1="100" y1="40" x2="100" y2="220"/>
    <line x1="40" y1="160" x2="220" y2="160"/>
    <line x1="160" y1="40" x2="160" y2="220"/>
    <line x1="40" y1="220" x2="220" y2="220"/>
    <line x1="220" y1="40" x2="220" y2="220"/>
  </g>
  <g stroke="#000000" stroke-width="6" stroke-linecap="butt">
  </g>
  <g stroke="#2196F3" stroke-width="3" stroke-linecap="round">
    <line x1="130" y1="70" x2="190" y2="70"/>
    <line x1="70" y1="190" x2="130" y2="190"/>
    <line x1="130" y1="190" x2="190" y2="190"/>
    <line x1="70" y1="70" x2="70" y2="130"/>
    <line x1="130" y1="70" x2="130" y2="130"/>
    <line x1="190" y1="70" x2="190" y2="130"/>
    <line x1="70" y1="130" x2="70" y2="190"/>
    <line x1="190" y1="130" x2="190" y2="190"/>
  </g>
  <g fill="#2196F3">
    <circle cx="130" cy="130" r="6"/>
  </g>
  <g fill="#CCCCCC">
    <circle cx="70" cy="70" r="3"/>
    <circle cx="130" cy="70" r="3"/>
    <circle cx="190" cy="70" r="3"/>
    <circle cx="70" cy="130" r="3"/>
    <circle cx="190" cy="130" r="3"/>
    <circle cx="70" cy="190" r="3"/>
    <circle cx="130" cy="190" r="3"/>
    <circle cx="190" cy="190" r="3"/>
  </g>
</svg>
