<?xml version="1.0" encoding="UTF-8"?>
<svg width="560" height="560" xmlns="http://www.w3.org/2000/svg">
  <rect width="100%" height="100%" fill="white"/>
  <g stroke="#cccccc" stroke-width="1">
    <line x1="40" y1="40" x2="520" y2="40"/>
    <line x1="40" y1="40" x2="40" y2="520"/>
    <line x1="40" y1="100" x2="520" y2="100"/>
    <line x1="100" y1="40" x2="100" y2="520"/>
    <line x1="40" y1="160" x2="520" y2="160"/>
    <line x1="160" y1="40" x2="160" y2="520"/>
    <line x1="40" y1="220" x2="520" y2="220"/>
    <line x1="220" y1="40" x2="220" y2="520"/>
    <line x1="40" y1="280" x2="520" y2="280"/>
    <line x1="280" y1="40" x2="280" y2="520"/>
    <line x1="40" y1="340" x2="520" y2="340"/>
    <line x1="340" y1="40" x2="340" y2="520"/>
    <line x1="40" y1="400" x2="520" y2="400"/>
    <line x1="400" y1="40" x2="400" y2="520"/>
    <line x1="40" y1="460" x2="520" y2="460"/>
    <line x1="460" y1="40" x2="460" y2="520"/>
    <line x1="40" y1="520" x2="520" y2="520"/>
    <line x1="520" y1="40" x2="520" y2="520"/>
  </g>
  <g stroke="#2196F3" stroke-width="3" stroke-linecap="round">
    <line x1="190" y1="70" x2="250" y2="70"/>
    <line x1="250" y1="70" x2="310" y2="70"/>
    <line x1="430" y1="70" x2="490" y2="70"/>
    <line x1="370" y1="130" x2="430" y2="130"/>
    <line x1="430" y1="130" x2="490" y2="130"/>
    <line x1="310" y1="190" x2="370" y2="190"/>
    <line x1="370" y1="190" x2="430" y2="190"/>
    <line x1="430" y1="190" x2="490" y2="190"/>
    <line x1="130" y1="250" x2="190" y2="250"/>
    <line x1="310" y1="250" x2="370" y2="250"/>
    <line x1="370" y1="250" x2="430" y2="250"/>
    <line x1="370" y1="310" x2="430" y2="310"/>
    <line x1="190" y1="370" x2="250" y2="370"/>
    <line x1="250" y1="430" x2="310" y2="430"/>
    <line x1="370" y1="430" x2="430" y2="430"/>
    <line x1="430" y1="430" x2="490" y2="430"/>
    <line x1="130" y1="490" x2="190" y2="490"/>
    <line x1="250" y1="490" x2="310" y2="490"/>
    <line x1="310" y1="490" x2="370" y2="490"/>
    <line x1="370" y1="490" x2="430" y2="490"/>
    <line x1="430" y1="490" x2="490" y2="490"/>
    <line x1="70" y1="70" x2="70" y2="130"/>
    <line x1="130" y1="70" x2="130" y2="130"/>
    <line x1="190" y1="70" x2="190" y2="130"/>
    <line x1="310" y1="70" x2="310" y2="130"/>
    <line x1="370" y1="70" x2="370" y2="130"/>
    <line x1="490" y1="70" x2="490" y2="130"/>
    <line x1="70" y1="130" x2="70" y2="190"/>
    <line x1="130" y1="130" x2="130" y2="190"/>
    <line x1="250" y1="130" x2="250" y2="190"/>
    <line x1="70" y1="190" x2="70" y2="250"/>
    <line x1="130" y1="190" x2="130" y2="250"/>
    <line x1="190" y1="190" x2="190" y2="250"/>
    <line x1="250" y1="190" x2="250" y2="250"/>
    <line x1="310" y1="190" x2="310" y2="250"/>
    <line x1="490" y1="190" x2="490" y2="250"/>
    <line x1="70" y1="250" x2="70" y2="310"/>
    <line x1="250" y1="250" x2="250" y2="310"/>
    <line x1="490" y1="250" x2="490" y2="310"/>
    <line x1="70" y1="310" x2="70" y2="370"/>
    <line x1="130" y1="310" x2="130" y2="370"/>
    <line x1="190" y1="310" x2="190" y2="370"/>
    <line x1="250" y1="310" x2="250" y2="370"/>
    <line x1="310" y1="310" x2="310" y2="370"/>
    <line x1="370" y1="310" x2="370" y2="370"/>
    <line x1="430" y1="310" x2="430" y2="370"/>
    <line x1="490" y1="310" x2="490" y2="370"/>
    <line x1="70" y1="370" x2="70" y2="430"/>
    <line x1="130" y1="370" x2="130" y2="430"/>
    <line x1="310" y1="370" x2="310" y2="430"/>
    <line x1="70" y1="430" x2="70" y2="490"/>
    <line x1="130" y1="430" x2="130" y2="490"/>
    <line x1="190" y1="430" x2="190" y2="490"/>
    <line x1="490" y1="430" x2="490" y2="490"/>
  </g>
  <g fill="#2196F3">
    <circle cx="130" cy="70" r="6"/>
    <circle cx="370" cy="70" r="6"/>
    <circle cx="190" cy="130" r="6"/>
    <circle cx="190" cy="310" r="6"/>
    <circle cx="430" cy="370" r="6"/>
    <circle cx="490" cy="370" r="6"/>
    <circle cx="190" cy="430" r="6"/>
    <circle cx="250" cy="430" r="6"/>
    <circle cx="370" cy="430" r="6"/>
    <circle cx="70" cy="490" r="6"/>
  </g>
  <g fill="#2196F3">
    <circle cx="190" cy="70" r="4"/>
    <circle cx="250" cy="70" r="4"/>
    <circle cx="310" cy="70" r="4"/>
    <circle cx="490" cy="70" r="4"/>
    <circle cx="70" cy="130" r="4"/>
    <circle cx="130" cy="130" r="4"/>
    <circle cx="370" cy="130" r="4"/>
    <circle cx="430" cy="130" r="4"/>
    <circle cx="490" cy="130" r="4"/>
    <circle cx="70" cy="190" r="4"/>
    <circle cx="130" cy="190" r="4"/>
    <circle cx="250" cy="190" r="4"/>
    <circle cx="310" cy="190" r="4"/>
    <circle cx="370" cy="190" r="4"/>
    <circle cx="430" cy="190" r="4"/>
    <circle cx="490" cy="190" r="4"/>
    <circle cx="70" cy="250" r="4"/>
    <circle cx="130" cy="250" r="4"/>
    <circle cx="190" cy="250" r="4"/>
    <circle cx="250" cy="250" r="4"/>
    <circle cx="310" cy="250" r="4"/>
    <circle cx="370" cy="250" r="4"/>
    <circle cx="490" cy="250" r="4"/>
    <circle cx="70" cy="310" r="4"/>
    <circle cx="250" cy="310" r="4"/>
    <circle cx="370" cy="310" r="4"/>
    <circle cx="430" cy="310" r="4"/>
    <circle cx="490" cy="310" r="4"/>
    <circle cx="70" cy="370" r="4"/>
    <circle cx="130" cy="370" r="4"/>
    <circle cx="190" cy="370" r="4"/>
    <circle cx="250" cy="370" r="4"/>
    <circle cx="310" cy="370" r="4"/>
    <circle cx="70" cy="430" r="4"/>
    <circle cx="130" cy="430" r="4"/>
    <circle cx="310" cy="430" r="4"/>
    <circle cx="430" cy="430" r="4"/>
    <circle cx="490" cy="430" r="4"/>
    <circle cx="130" cy="490" r="4"/>
    <circle cx="190" cy="490" r="4"/>
    <circle cx="310" cy="490" r="4"/>
    <circle cx="370" cy="490" r="4"/>
    <circle cx="430" cy="490" r="4"/>
    <circle cx="490" cy="490" r="4"/>
  </g>
  <g fill="none" stroke="#2196F3" stroke-width="2">
    <circle cx="70" cy="70" r="6"/>
    <circle cx="430" cy="70" r="6"/>
    <circle cx="250" cy="130" r="6"/>
    <circle cx="310" cy="130" r="6"/>
    <circle cx="190" cy="190" r="6"/>
    <circle cx="430" cy="250" r="6"/>
    <circle cx="130" cy="310" r="6"/>
    <circle cx="310" cy="310" r="6"/>
    <circle cx="370" cy="370" r="6"/>
    <circle cx="250" cy="490" r="6"/>
  </g>
</svg>
